<?xml version="1.0" ?>
<!DOCTYPE svg  PUBLIC '-//W3C//DTD SVG 1.1//EN'  'http://www.w3.org/Graphics/SVG/1.1/DTD/svg11.dtd'>
<!-- Uploaded to: SVG Repo, www.svgrepo.com, Generator: SVG Repo Mixer Tools -->
<svg fill="#000000" width="800px" height="800px" viewBox="0 0 129.922 129.922" enable-background="new 0 0 129.921 129.922" version="1.1" xml:space="preserve" xmlns="http://www.w3.org/2000/svg" xmlns:xlink="http://www.w3.org/1999/xlink">
<g id="Layer_2"/>
<g id="Layer_1">
<g>
<g>
<path d="M66.025,115.333c-25.997,0-47.147-21.15-47.147-47.147c0-12.514,4.804-22.021,14.276-28.259     c8.029-5.286,19.088-7.968,32.871-7.968s24.842,2.682,32.871,7.968c9.473,6.237,14.275,15.745,14.275,28.259     C113.172,94.183,92.022,115.333,66.025,115.333z M66.025,37.904c-18.797,0-41.202,5.254-41.202,30.281     c0,22.719,18.483,41.202,41.202,41.202s41.202-18.483,41.202-41.202C107.228,43.158,84.822,37.904,66.025,37.904z"/>
</g>
<g>
<path d="M64.728,102.653c-0.675,0-1.345-0.285-1.815-0.841c-18.377-21.667-6.307-47.601-2.17-55.032     c0.639-1.147,2.087-1.56,3.234-0.921s1.561,2.086,0.922,3.234c-3.762,6.757-14.759,30.306,1.642,49.644     c0.85,1.001,0.727,2.502-0.275,3.352C65.817,102.468,65.271,102.653,64.728,102.653z"/>
</g>
<g>
<path d="M63.301,50.92c-6.932,0-12.301-5.161-12.531-5.386c-1.176-1.146-1.199-3.027-0.052-4.204     c1.146-1.173,3.021-1.196,4.197-0.058c0.09,0.086,4.123,3.897,8.693,3.696c2.395-0.093,4.55-1.25,6.589-3.54     c1.092-1.226,2.971-1.333,4.196-0.241s1.334,2.972,0.242,4.197c-3.142,3.525-6.793,5.385-10.852,5.526     C63.622,50.918,63.461,50.92,63.301,50.92z"/>
</g>
<g>
<path d="M65.818,50.359c-0.911,0-1.81-0.416-2.393-1.205c-5.227-7.065-11.89-23.646,0.288-35.824c1.16-1.16,3.043-1.16,4.203,0     c1.16,1.162,1.16,3.045,0,4.205c-11.64,11.64,0.167,27.921,0.288,28.085c0.976,1.319,0.697,3.181-0.622,4.157     C67.051,50.171,66.432,50.359,65.818,50.359z"/>
</g>
<g>
<path d="M48.279,38.804c-4.357,0-8.434-1.278-11.79-3.697c-6.753-4.869-9.787-13.835-7.92-23.399l0.262-1.345l1.192-0.674     c4.145-2.342,8.609-3.581,12.914-3.581c4.356,0,8.434,1.279,11.789,3.698c6.753,4.867,9.788,13.832,7.922,23.398l-0.263,1.345     l-1.193,0.674C57.049,37.565,52.584,38.804,48.279,38.804z M34.178,14.216c-0.911,6.723,1.246,12.793,5.789,16.068     c2.336,1.684,5.211,2.574,8.313,2.574c2.872,0,5.874-0.744,8.761-2.162c0.909-6.725-1.248-12.795-5.79-16.067     c-2.338-1.686-5.211-2.576-8.313-2.576C40.066,12.053,37.063,12.797,34.178,14.216z"/>
</g>
</g>
</g>
</svg>