<?xml version='1.0' encoding='iso-8859-1'?>
<!-- Uploaded to: SVG Repo, www.svgrepo.com, Generator: SVG Repo Mixer Tools -->
<svg fill="#000000" height="800px" width="800px" version="1.1" xmlns="http://www.w3.org/2000/svg" viewBox="0 0 463 463" xmlns:xlink="http://www.w3.org/1999/xlink" enable-background="new 0 0 463 463">
  <path d="m346.786,157.781c-16.604-32.653-38.622-57.355-58.049-79.15-20.923-23.473-40.686-45.644-50.134-73.538-1.031-3.044-3.888-5.093-7.103-5.093s-6.072,2.049-7.104,5.094c-9.448,27.894-29.211,50.065-50.134,73.538-19.427,21.794-41.445,46.497-58.049,79.15-18.984,37.336-28.213,79.767-28.213,129.718 0,28.377 11.316,52.104 34.597,72.534 19.292,16.931 43.922,28.76 63.712,38.264 17.667,8.485 37.691,18.102 37.691,25.202v32c0,4.142 3.357,7.5 7.5,7.5s7.5-3.358 7.5-7.5v-32c0-7.1 20.024-16.717 37.691-25.202 19.79-9.504 44.42-21.333 63.712-38.264 23.281-20.43 34.597-44.157 34.597-72.534 0-49.951-9.229-92.382-28.214-129.719zm-241.432,89.028l118.646,76.771v38.134l-120.974-78.277c0.139-13.052 0.946-25.228 2.328-36.628zm10.637-49.117l108.009,69.888v38.134l-116.2-75.188c2.127-11.79 4.9-22.69 8.191-32.834zm19.299-43.522c0.047,0.032 0.089,0.067 0.136,0.098l88.574,57.312v38.134l-102.779-66.504c4.187-10.47 8.935-20.088 14.069-29.04zm26.978-38.709c0.349,0.339 0.734,0.65 1.158,0.924l60.574,39.195v38.134l-80.426-52.04c-0.146-0.094-0.297-0.175-0.447-0.258 6.09-9.281 12.549-17.85 19.141-25.955zm162.304,33.393l-85.572,55.37v-38.134l67.338-43.572c6.344,8.191 12.495,16.893 18.234,26.336zm20.391,42.805l-105.963,68.565v-38.134l92.973-60.159c4.804,9.16 9.187,19.014 12.99,29.728zm11.781,48.377l-117.744,76.188v-38.134l110.678-71.615c2.93,10.378 5.322,21.529 7.066,33.561zm-117.744-199.8c7.646,12.235 16.791,23.552 26.555,34.806l-26.555,17.182v-51.988zm-15,41.478l-20.777-13.444c7.585-9.048 14.661-18.248 20.777-28.035v41.479zm15,252.376l119.674-77.436c0.862,9.725 1.326,19.982 1.326,30.846 0,2.009-0.077,3.972-0.211,5.899l-120.789,78.158v-37.467zm57.869-223.311l-57.869,37.445v-38.134l36.584-23.672c0.651,0.731 1.301,1.461 1.955,2.195 6.377,7.153 12.893,14.466 19.33,22.166zm-111.408-22.167c2.65-2.973 5.277-5.925 7.875-8.873l30.664,19.841v38.134l-52.105-33.715c4.54-5.259 9.088-10.363 13.566-15.387zm7.342,296.165c-36.211-17.391-80.433-38.632-88.505-82.651l119.702,77.454v21.893c-8.177-5.635-19.087-10.879-31.197-16.696zm77.394,0c-12.11,5.817-23.02,11.061-31.197,16.696v-12.05l116.455-75.353c-13.161,36.073-52.487,54.968-85.258,70.707z"/>
</svg>