<?xml version="1.0" encoding="iso-8859-1"?>
<!-- Uploaded to: SVG Repo, www.svgrepo.com, Generator: SVG Repo Mixer Tools -->
<svg fill="#000000" height="800px" width="800px" version="1.1" id="Capa_1" xmlns="http://www.w3.org/2000/svg" xmlns:xlink="http://www.w3.org/1999/xlink" 
	 viewBox="0 0 469.899 469.899" xml:space="preserve">
<g>
	<path d="M469.811,348.332c0.052-0.356,0.088-0.717,0.088-1.087c0-0.371-0.036-0.731-0.087-1.086
		c-0.01-0.067-0.019-0.134-0.031-0.202c-0.063-0.361-0.148-0.713-0.26-1.054c-0.348-1.051-3.506-9.64-15.69-18.207
		c-4.645-26.032-18.133-49.825-38.228-67.306c-9.103-7.919-19.31-14.302-30.22-19.012c-0.317-0.165-0.642-0.3-0.973-0.416
		c-14.181-5.969-29.523-9.118-45.165-9.118c-28.533,0-66.841,13.748-113.93,40.857c-3.86-6.88-8.6-13.209-14.212-18.821
		c-1.785-1.785-3.662-3.466-5.592-5.081c26.121-45.902,39.366-83.336,39.366-111.324c0-15.779-3.202-31.255-9.273-45.541
		c-0.119-0.336-0.262-0.666-0.432-0.987c-4.693-10.763-11.016-20.837-18.841-29.831c-17.48-20.094-41.273-33.583-67.305-38.228
		c-8.568-12.186-17.157-15.343-18.173-15.682c-0.375-0.121-0.728-0.206-1.089-0.269c-0.067-0.012-0.133-0.021-0.2-0.031
		c-0.356-0.052-0.717-0.087-1.087-0.087c-0.37,0-0.731,0.036-1.086,0.087c-0.068,0.01-0.135,0.019-0.202,0.031
		c-0.36,0.063-0.713,0.148-1.053,0.26c-1.051,0.348-9.64,3.506-18.207,15.691c-26.032,4.645-49.825,18.133-67.306,38.228
		c-7.919,9.103-14.302,19.31-19.011,30.219c-0.165,0.318-0.301,0.645-0.417,0.977c-5.968,14.181-9.117,29.522-9.117,45.163
		c0,30.18,15.327,71.191,45.557,121.96c-4.7,3.752-9.237,7.804-13.577,12.143c-24.689,24.689-39.276,55.018-43.064,84.408
		c-0.232,0.8-0.337,1.637-0.292,2.482c-3.29,30.354,5.003,59.504,25.657,80.158c17.057,17.057,41.001,26.45,67.423,26.45
		c10.597,0,21.456-1.479,32.274-4.394c6.252-1.686,13.342-4.079,20.848-6.612c17.124-5.78,36.533-12.331,51.496-12.331
		c2.82,0,5.395,0.241,7.651,0.715c2.478,0.52,5.055-0.244,6.847-2.036s2.558-4.367,2.036-6.847
		c-0.971-4.615-0.889-10.067-0.127-15.967c51.893,31.216,93.726,47.04,124.439,47.04c15.744,0,31.184-3.188,45.443-9.233
		c0.036-0.013,0.07-0.031,0.106-0.044c11.133-4.732,21.542-11.208,30.809-19.269c20.094-17.48,33.583-41.273,38.228-67.305
		c12.186-8.568,15.343-17.157,15.682-18.173c0.121-0.375,0.206-0.729,0.269-1.09C469.792,348.465,469.801,348.399,469.811,348.332z
		 M439.537,362.26c-4.951,33.375-26.36,61.171-55.161,75.632l-65.968-83.147h127.865c-0.998,0.745-2.093,1.503-3.306,2.264
		C441.111,358.174,439.859,360.093,439.537,362.26z M36.963,427.021c-14.12-14.12-21.321-33.05-22.007-53.566
		c4.193,1.859,9,2.799,14.32,2.798c6.641,0,14.077-1.457,22.089-4.39c17.464-6.392,36.602-19.432,53.889-36.719
		c17.287-17.287,30.328-36.425,36.719-53.889c5.946-16.246,5.801-30.095-0.227-39.804c0.642-0.012,1.285-0.028,1.926-0.028
		c22.741,0,42.39,7.629,56.825,22.064c20.292,20.292,27.087,52.137,18.179,85.187c-1.563,5.801-3.884,12.677-6.341,19.956
		c-6.321,18.729-13.348,39.547-13.115,57.116c-0.272-0.004-0.547-0.005-0.822-0.005c-17.426,0-38.075,6.969-56.293,13.118
		c-7.279,2.457-14.153,4.777-19.955,6.341c-9.545,2.573-19.09,3.877-28.37,3.877C71.039,449.077,51.392,441.45,36.963,427.021z
		 M118.712,32.753c0.761-1.212,1.519-2.307,2.264-3.305v34.612c0,4.142,3.357,7.499,7.498,7.5c4.144,0,7.502-3.358,7.502-7.5V29.448
		c0.745,0.998,1.503,2.093,2.264,3.306c1.165,1.855,3.083,3.108,5.25,3.43c33.376,4.951,61.171,26.36,75.632,55.162l-83.147,65.968
		V94.061c0-4.142-3.358-7.5-7.5-7.5c-4.143,0.001-7.5,3.358-7.5,7.5v63.646l-83.312-66.04
		c14.415-28.965,42.297-50.513,75.797-55.483C115.628,35.861,117.547,34.608,118.712,32.753z M229.876,136.476
		c0,24.767-12.676,60.166-36.708,102.677c-14.38-8.299-31.355-12.729-49.496-12.729c-2.561,0-5.127,0.095-7.696,0.264v-50.226
		l89.068-70.666C228.175,115.53,229.876,125.847,229.876,136.476z M31.797,106.157l89.178,70.69v51.754
		c-17.67,3.358-35.105,10.531-51.138,21.004c-27.994-47.273-42.762-86.286-42.762-113.13
		C27.075,125.978,28.739,115.786,31.797,106.157z M121.177,243.859c2.51,0.653,4.577,1.774,6.151,3.347
		c10.781,10.782,0.222,44.428-32.682,77.332c-15.777,15.777-32.979,27.582-48.438,33.239c-13.184,4.825-23.714,4.622-28.894-0.558
		c-0.502-0.502-0.956-1.057-1.366-1.655c3.657-25.736,16.793-52.46,38.712-74.379C73.899,261.948,97.295,248.965,121.177,243.859z
		 M369.563,250.567l-17.723,22.357c-2.573,3.246-2.027,7.963,1.218,10.537c1.379,1.093,3.022,1.623,4.654,1.623
		c2.211,0,4.402-0.974,5.882-2.841l20.459-25.809c28.965,14.415,50.513,42.297,55.482,75.797c0.322,2.167,1.575,4.085,3.43,5.25
		c1.212,0.761,2.307,1.519,3.305,2.264H318.014l26.94-33.985c2.573-3.246,2.027-7.963-1.218-10.537
		c-3.247-2.573-7.963-2.028-10.537,1.218l-34.326,43.304h-62.95c3.144-19.257,1.581-37.897-4.35-54.336
		c44.772-25.898,81.917-39.564,107.672-39.564C349.743,245.845,359.934,247.509,369.563,250.567z M226.546,373.427
		c2.245-6.653,4.378-12.976,6.008-18.682h66.705l70.665,89.067c-9.734,3.132-20.051,4.833-30.681,4.833
		c-28.426,0-70.288-16.465-121.275-47.663C220.393,391.663,223.627,382.077,226.546,373.427z"/>
	<path d="M72.53,387.002c-2.137,0-4.146,0.832-5.657,2.343c-3.119,3.119-3.119,8.194,0,11.314c1.511,1.511,3.52,2.343,5.657,2.343
		s4.146-0.832,5.657-2.343c3.119-3.119,3.119-8.194,0-11.314C76.676,387.834,74.667,387.002,72.53,387.002z"/>
	<path d="M176.136,311.116c2.137,0,4.146-0.832,5.657-2.343c1.512-1.513,2.344-3.523,2.343-5.662s-0.836-4.148-2.343-5.652
		c-1.511-1.511-3.52-2.343-5.657-2.343s-4.146,0.832-5.65,2.336c-1.514,1.51-2.348,3.52-2.35,5.658s0.831,4.149,2.343,5.663
		C171.991,310.284,174,311.116,176.136,311.116z"/>
	<path d="M178.95,331.402c-0.001,2.139,0.831,4.149,2.343,5.663c1.511,1.511,3.52,2.343,5.657,2.343s4.146-0.832,5.657-2.343
		c1.512-1.513,2.344-3.523,2.343-5.662s-0.836-4.148-2.343-5.652c-1.511-1.511-3.52-2.343-5.657-2.343s-4.146,0.832-5.65,2.336
		C179.786,327.254,178.952,329.263,178.95,331.402z"/>
</g>
</svg>