<?xml version="1.0" encoding="iso-8859-1"?>
<!-- Uploaded to: SVG Repo, www.svgrepo.com, Generator: SVG Repo Mixer Tools -->
<!DOCTYPE svg PUBLIC "-//W3C//DTD SVG 1.1//EN" "http://www.w3.org/Graphics/SVG/1.1/DTD/svg11.dtd">
<svg fill="#000000" height="800px" width="800px" version="1.1" id="Capa_1" xmlns="http://www.w3.org/2000/svg" xmlns:xlink="http://www.w3.org/1999/xlink" 
	 viewBox="0 0 50.529 50.529" xml:space="preserve">
<path d="M41.538,8.884C33.303,0.651,23.914-1.977,15.091,1.492L13.954,1.94l0.665,1.027c0.307,0.474,0.614,0.912,0.921,1.333
	c-2.297,1.161-4.507,2.793-6.586,4.871C4.558,13.567,1.455,21.056,0.438,29.72c-0.704,5.995-0.24,11.36,1.167,14.766
	c0.264,0.922,0.676,1.685,1.251,2.246c0.035,0.034,0.079,0.048,0.117,0.076c0.048,0.056,0.095,0.111,0.144,0.164
	C3.129,46.985,3.138,47,3.15,47.013c0.009,0.01,0.011,0.022,0.021,0.032c0.005,0.005,0.011,0.01,0.017,0.015
	c0.003,0.003,0.004,0.006,0.007,0.009c0.003,0.003,0.007,0.004,0.01,0.006c0.005,0.005,0.011,0.01,0.017,0.015
	c0.013,0.013,0.025,0.03,0.038,0.043c0.083,0.086,0.191,0.16,0.281,0.242c0.018,0.014,0.034,0.031,0.052,0.045
	c2.192,1.968,6.257,3.075,11.568,3.108c0.078,0.001,0.156,0.001,0.234,0.001c8.387,0,19.562-2.792,25.844-9.074
	c2.138-2.138,3.806-4.424,4.976-6.811c0.441,0.292,0.9,0.583,1.39,0.873l1.026,0.608l0.42-1.117
	C52.329,26.284,49.661,17.006,41.538,8.884z M39.824,40.041c-5.934,5.934-16.687,8.526-24.651,8.487
	c-1.353-0.008-2.622-0.102-3.8-0.258c5.481-1.086,12.284-4.619,15.423-9.744c0.289-0.471,0.141-1.087-0.33-1.375
	c-0.473-0.288-1.087-0.14-1.375,0.33c-3.013,4.918-10.28,8.471-15.565,9.063c-2.294,0.254-4.061-0.06-4.885-0.864
	c-0.014-0.014-0.026-0.032-0.039-0.046c-0.573-1.221,2.757-8.49,7.536-12.036c0.443-0.329,0.536-0.955,0.207-1.398
	c-0.33-0.444-0.956-0.536-1.398-0.207c-3.268,2.425-6.318,6.895-7.661,10.308c-0.025-0.588-0.006-1.228,0.072-1.923
	c0.593-5.286,4.145-12.554,9.063-15.566c0.471-0.288,0.619-0.904,0.33-1.375c-0.288-0.471-0.903-0.618-1.375-0.33
	c-4.489,2.749-7.756,8.309-9.229,13.33c-0.074-2.018,0.012-4.218,0.278-6.483c0.95-8.104,3.92-15.345,7.943-19.368
	c2.037-2.037,4.198-3.607,6.431-4.678c3.16,3.691,6.157,4.884,8.077,5.243c-0.217,0.304-0.402,0.603-0.594,0.904
	c-0.101,0.158-0.218,0.318-0.312,0.475c-0.125,0.208-0.225,0.412-0.339,0.619c-0.136,0.246-0.284,0.495-0.405,0.738
	c-0.056,0.113-0.097,0.222-0.149,0.334c-0.156,0.332-0.312,0.663-0.441,0.988c-0.015,0.038-0.025,0.074-0.039,0.112
	c-2.18,5.587-0.557,10.042-0.101,11.093l0.157,0.363l0.363,0.157c0.976,0.422,4.887,1.859,9.917,0.313
	c0.002,0,0.003-0.001,0.005-0.001c0.363-0.112,0.734-0.247,1.108-0.391c0.058-0.023,0.115-0.038,0.173-0.061
	c0.284-0.113,0.575-0.253,0.865-0.386c0.153-0.071,0.303-0.128,0.458-0.205c0.227-0.113,0.46-0.252,0.691-0.378
	c0.222-0.122,0.441-0.23,0.665-0.365c0.162-0.097,0.328-0.218,0.491-0.323c0.295-0.189,0.589-0.37,0.888-0.583
	c0.388,2.09,1.776,5.453,6.287,8.914C43.486,35.761,41.896,37.969,39.824,40.041z M47.572,33.148
	c-0.298-0.192-0.56-0.383-0.834-0.574l-0.348-0.251c-6.762-4.885-6.271-9.333-6.238-9.576l0.452-2.691l-0.017,0.014v0l-2.071,1.76
	c-6.6,5.606-12.681,4.01-14.333,3.414c-0.112-0.31-0.259-0.776-0.387-1.371c-0.171-0.794-0.308-1.819-0.283-3.014
	c0.056-2.688,0.93-6.235,4.084-9.947l1.757-2.067l-2.593,0.419l-0.081,0.012c-0.012,0.002-0.042,0.006-0.083,0.009
	c-0.013,0.001-0.033,0.002-0.05,0.003c-0.023,0.002-0.05,0.003-0.079,0.005c-0.887,0.034-4.515-0.166-8.597-5.245l-0.286-0.355
	c-0.192-0.249-0.384-0.49-0.577-0.762c7.693-2.478,15.852,0.106,23.114,7.369C47.294,17.468,49.91,25.535,47.572,33.148z"/>
</svg>