<?xml version="1.0" encoding="iso-8859-1"?>
<!-- Uploaded to: SVG Repo, www.svgrepo.com, Generator: SVG Repo Mixer Tools -->
<svg fill="#000000" height="800px" width="800px" version="1.1" id="Layer_1" xmlns="http://www.w3.org/2000/svg" xmlns:xlink="http://www.w3.org/1999/xlink" 
	 viewBox="0 0 512.001 512.001" xml:space="preserve">
<g>
	<g>
		<path d="M510.617,342.634l-39.477-56.46l35.938-56.364c1.29-2.023,1.558-4.532,0.726-6.781c-0.832-2.249-2.669-3.981-4.964-4.677
			l-70.862-21.508l-10.714-57.856c-0.623-3.361-3.395-5.904-6.797-6.236c-3.401-0.327-6.613,1.631-7.87,4.81
			c-14.23,35.958-31.566,52.278-64.354,70.595c8.914-53.603,28.004-90.166,67.296-130.698c2.341-2.415,2.835-6.075,1.216-9.024
			c-1.618-2.949-4.97-4.499-8.265-3.822l-85.164,17.493L256.021,7.993c-1.492-1.805-3.738-2.814-6.071-2.778
			c-2.342,0.05-4.533,1.168-5.947,3.036l-57.776,76.275L99.732,70.197c-3.315-0.551-6.604,1.128-8.108,4.132
			c-1.505,3.006-0.876,6.642,1.552,8.967c42.096,40.335,56.353,74.075,65.976,125.315c-29.2-14.919-44.558-28.4-60.771-65.359
			c-1.37-3.122-4.637-4.965-8.014-4.522c-3.379,0.442-6.062,3.062-6.583,6.43L73.64,210.722L5.842,227.338
			c-2.351,0.576-4.292,2.229-5.236,4.458c-0.944,2.229-0.779,4.774,0.445,6.862l36.743,62.74L2.166,351.749
			c-1.985,2.806-1.86,6.59,0.306,9.26c2.166,2.668,5.844,3.571,8.999,2.204c42.916-18.583,90.28-20.385,134.214-5.264
			l-23.813,60.235c-1.14,2.884-0.43,6.17,1.797,8.327c1.46,1.413,3.381,2.158,5.334,2.158c1.028,0,2.065-0.206,3.046-0.632
			c32.709-14.171,60.742-25.31,95.302-28.436v83.47c0,13.077,10.639,23.715,23.715,23.715c13.076,0,23.715-10.638,23.715-23.715
			v-82.03c37.305,1.273,73.857,8.779,108.688,22.358c2.888,1.128,6.172,0.403,8.319-1.836c2.147-2.238,2.733-5.549,1.487-8.387
			l-26.029-59.315c43.356-16.724,90.749-16.671,134.302,0.31c3.148,1.229,6.725,0.25,8.813-2.405
			C512.449,349.11,512.552,345.402,510.617,342.634z M264.436,321.92c-2.998,1.12-4.986,3.984-4.986,7.184v153.966
			c0,4.621-3.76,8.382-8.382,8.382c-4.622,0-8.382-3.761-8.382-8.382V328.511c0-3.201-1.988-6.065-4.987-7.183l-109.26-40.757
			c-2.081-0.776-3.742-2.331-4.678-4.379c-0.935-2.047-1.022-4.322-0.246-6.403c1.256-3.369,4.463-5.453,7.863-5.453
			c0.971,0,1.959,0.17,2.919,0.529l98.042,36.572c2.353,0.875,4.987,0.546,7.051-0.885c2.064-1.433,3.295-3.785,3.295-6.298V147.066
			c0-4.621,3.761-8.381,8.382-8.381s8.382,3.76,8.382,8.381v147.781c0,2.513,1.231,4.865,3.295,6.298
			c2.065,1.433,4.7,1.762,7.051,0.885l99.633-37.166c4.328-1.617,9.168,0.594,10.783,4.924c0.776,2.081,0.688,4.356-0.246,6.403
			c-0.935,2.049-2.596,3.603-4.678,4.379L264.436,321.92z M354.022,342.71c-1.872,0.811-3.344,2.333-4.089,4.232
			c-0.745,1.899-0.703,4.016,0.116,5.884l22.015,50.17c-31.444-10.417-64.081-16.217-97.281-17.302v-51.266l105.864-39.489
			c5.919-2.208,10.63-6.604,13.266-12.377c2.636-5.772,2.872-12.211,0.664-18.13c-4.57-12.251-18.256-18.499-30.508-13.933
			l-89.288,33.307v-136.74c0-13.076-10.638-23.714-23.715-23.714c-13.076,0-23.715,10.638-23.715,23.714v136.145l-87.696-32.713
			c-12.251-4.568-25.938,1.682-30.508,13.933c-2.208,5.918-1.972,12.358,0.664,18.13c2.636,5.773,7.348,10.169,13.266,12.377
			l104.272,38.896v50.369c-31.183,2.62-56.876,11.167-84.483,22.577l19.965-50.502c0.749-1.895,0.714-4.013-0.102-5.882
			c-0.815-1.87-2.341-3.338-4.241-4.079c-41.92-16.357-87.148-18.209-129.685-5.67l24.361-34.429
			c1.739-2.457,1.878-5.705,0.357-8.302l-34.045-58.133l62.781-15.385c3.008-0.737,5.279-3.213,5.751-6.274l7.253-46.878
			c17.341,29.876,36.952,41.788,70.751,57.788c2.577,1.221,5.617,0.909,7.893-0.806c2.276-1.715,3.414-4.551,2.953-7.364
			c-9.092-55.477-20.667-91.818-56.611-131.725l68.041,11.272c2.805,0.465,5.645-0.664,7.364-2.935l54.725-72.248l58.074,70.203
			c1.807,2.185,4.673,3.193,7.45,2.623l66.596-13.68c-34.254,40.23-50.406,79.41-57.633,136.772
			c-0.357,2.827,0.885,5.619,3.223,7.249c2.339,1.63,5.388,1.827,7.917,0.514c31.288-16.25,55.99-31.154,74.497-63.833l7.25,39.148
			c0.521,2.817,2.57,5.108,5.311,5.941l65.653,19.927l-33.258,52.159c-1.666,2.614-1.596,5.975,0.181,8.515l29.293,41.894
			C441.52,321.222,395.809,324.61,354.022,342.71z"/>
	</g>
</g>
</svg>