<?xml version="1.0" encoding="iso-8859-1"?>
<!-- Uploaded to: SVG Repo, www.svgrepo.com, Generator: SVG Repo Mixer Tools -->
<!DOCTYPE svg PUBLIC "-//W3C//DTD SVG 1.1//EN" "http://www.w3.org/Graphics/SVG/1.1/DTD/svg11.dtd">
<svg fill="#000000" height="800px" width="800px" version="1.1" id="Capa_1" xmlns="http://www.w3.org/2000/svg" xmlns:xlink="http://www.w3.org/1999/xlink" 
	 viewBox="0 0 52.782 52.782" xml:space="preserve">
<g>
	<path d="M51.99,12.09c-1.164-0.301-2.942-0.329-5.275,0.077c0.523-1.615,1.411-3.687,1.925-4.802
		c0.58-1.26,0.866-2.948-0.071-3.913c-0.784-0.804-2.085-0.829-3.868-0.068c-0.686,0.292-1.35,0.603-1.981,0.897
		c-0.695,0.324-1.363,0.633-1.963,0.871c0.251-1.87,0.198-3.336-0.067-4.36l-0.205-0.791l-0.815,0.042
		c-1.885,0.099-12.41,4.615-15.125,5.819c-5.11,2.266-9.633,5.34-13.442,9.139l-0.075,0.075c-2.581,2.578-4.875,5.341-6.854,8.269
		c-4.454,7.638-5.351,16.298-2.666,25.738c0.067,0.237,0.124,0.434,0.163,0.587l0.147,0.57l0.72,0.72l0.571,0.147
		c0.153,0.04,0.35,0.096,0.586,0.163c3.537,1.007,6.963,1.51,10.272,1.51c5.521,0,10.711-1.402,15.523-4.21
		c2.87-1.942,5.633-4.236,8.218-6.824l0.069-0.069c3.798-3.809,6.873-8.33,9.139-13.441c1.204-2.715,5.72-13.238,5.819-15.125
		l0.043-0.816L51.99,12.09z M40.352,7.405c0.947-0.252,2.016-0.752,3.215-1.312c0.612-0.285,1.255-0.586,1.919-0.869
		c0.796-0.34,1.242-0.4,1.463-0.4c0.135,0,0.182,0.016,0.182,0.019c0.098,0.144,0.079,0.848-0.307,1.686
		c-0.196,0.425-1.777,3.886-2.329,6.119c-0.091,0.023-0.187,0.054-0.279,0.078c-0.329,0.087-0.664,0.18-1.008,0.282
		c-0.206,0.061-0.413,0.124-0.621,0.189c-0.273,0.086-0.553,0.179-0.836,0.274c-0.221,0.075-0.441,0.146-0.665,0.225
		c-0.459,0.163-0.928,0.337-1.41,0.524c-0.215,0.084-0.434,0.176-0.651,0.264c-0.319,0.129-0.639,0.26-0.968,0.4
		c-0.088,0.038-0.173,0.07-0.261,0.108c0.468-1.078,0.87-2.119,1.235-3.137c0.005-0.014,0.01-0.028,0.015-0.041
		c0.177-0.494,0.341-0.981,0.493-1.46c0.016-0.049,0.03-0.097,0.045-0.145C39.885,9.245,40.152,8.303,40.352,7.405z M5.868,24.41
		c1.872-2.766,4.084-5.43,6.575-7.917l0.074-0.075c3.635-3.625,7.955-6.561,12.84-8.727c5.418-2.402,11.26-4.735,13.544-5.438
		c0.065,0.881-0.002,2.084-0.27,3.586l-0.104,0.522c-0.146,0.733-0.331,1.493-0.552,2.277c-0.014,0.05-0.029,0.1-0.043,0.15
		c-0.094,0.327-0.195,0.659-0.302,0.994c-0.036,0.112-0.073,0.226-0.111,0.34c-0.097,0.294-0.198,0.591-0.304,0.892
		c-0.049,0.139-0.101,0.281-0.153,0.423c-0.109,0.299-0.221,0.599-0.34,0.904c-0.051,0.13-0.105,0.264-0.157,0.396
		c-0.134,0.336-0.27,0.673-0.415,1.015c-0.034,0.08-0.07,0.162-0.105,0.243c-0.321,0.748-0.67,1.512-1.043,2.29L35,16.286
		l-0.151,0.312c-0.422,0.868-0.857,1.722-1.308,2.568c-0.002,0.003-0.003,0.006-0.005,0.009c-0.451,0.846-0.918,1.682-1.402,2.516
		c-1.025,1.514-2.16,2.993-3.378,4.434c-1.008,1.191-2.07,2.358-3.198,3.484c-0.086,0.086-0.184,0.183-0.286,0.283
		C21.975,33.102,7.548,46.102,3.338,48.194C2.317,44.569-0.179,34.785,5.868,24.41z M45.092,27.425
		c-2.167,4.886-5.103,9.206-8.727,12.84l-0.074,0.074c-2.489,2.491-5.153,4.704-7.861,6.539C18.375,52.742,8.917,50.633,5.001,49.56
		c1.136-0.682,2.622-1.759,4.281-3.054c4.64-3.558,10.425-8.747,14.092-12.122c1.83-1.672,3.166-2.928,3.599-3.362
		c2.581-2.578,4.875-5.341,6.854-8.269c0.463-0.795,0.893-1.567,1.304-2.327c0.087-0.162,0.172-0.326,0.258-0.488
		c0.348-0.655,0.678-1.297,0.989-1.925c0.037-0.074,0.077-0.146,0.113-0.221c0.702-0.336,1.396-0.657,2.075-0.952
		c0.079-0.034,0.158-0.069,0.236-0.102c2.42-1.037,4.691-1.81,6.772-2.297l0.492-0.115c2.122-0.452,3.587-0.492,4.459-0.434
		C49.818,16.187,47.49,22.018,45.092,27.425z"/>
	<path d="M16.461,19.312c0.262,0,0.524-0.103,0.721-0.307c2.202-2.288,4.679-4.187,7.361-5.641c0.485-0.263,0.666-0.87,0.403-1.355
		c-0.263-0.485-0.87-0.664-1.356-0.402c-2.864,1.552-5.505,3.575-7.85,6.012c-0.383,0.398-0.371,1.031,0.027,1.414
		C15.962,19.219,16.212,19.312,16.461,19.312z"/>
	<path d="M29.338,10.695c0.16,0,0.322-0.038,0.473-0.119l0.212-0.115c0.799-0.432,1.555-0.839,2.331-1.146
		c0.514-0.204,0.765-0.785,0.561-1.299c-0.204-0.512-0.786-0.764-1.298-0.561c-0.885,0.352-1.728,0.807-2.543,1.246l-0.21,0.113
		c-0.486,0.263-0.668,0.869-0.406,1.355C28.637,10.504,28.982,10.695,29.338,10.695z"/>
	<path d="M4.656,42.342c0.19,0.299,0.514,0.463,0.845,0.463c0.184,0,0.369-0.051,0.536-0.156c0.466-0.296,0.604-0.914,0.307-1.381
		c-0.65-1.022-0.313-4.367,0.133-6.416c0.118-0.54-0.224-1.073-0.764-1.19c-0.537-0.117-1.072,0.223-1.19,0.763
		C4.313,35.382,3.335,40.265,4.656,42.342z"/>
</g>
</svg>